<mxfile host="app.diagrams.net" agent="Mozilla/5.0 (X11; Linux x86_64) AppleWebKit/537.36 (KHTML, like Gecko) Chrome/125.0.0.0 Safari/537.36" version="26.2.14">
  <diagram id="C5RBs43oDa-KdzZeNtuy" name="Page-1">
    <mxGraphModel dx="2919" dy="1180" grid="1" gridSize="10" guides="1" tooltips="1" connect="1" arrows="1" fold="1" page="1" pageScale="1" pageWidth="827" pageHeight="1169" math="0" shadow="0">
      <root>
        <mxCell id="WIyWlLk6GJQsqaUBKTNV-0" />
        <mxCell id="WIyWlLk6GJQsqaUBKTNV-1" parent="WIyWlLk6GJQsqaUBKTNV-0" />
        <mxCell id="R-Bo7N0ZmrTt44GJ4YcD-106" value="" style="shape=folder;fontStyle=1;spacingTop=10;tabWidth=190;tabHeight=30;tabPosition=left;html=1;whiteSpace=wrap;" vertex="1" parent="WIyWlLk6GJQsqaUBKTNV-1">
          <mxGeometry x="-220" y="20" width="1330" height="336" as="geometry" />
        </mxCell>
        <mxCell id="R-Bo7N0ZmrTt44GJ4YcD-104" value="" style="shape=folder;fontStyle=1;spacingTop=10;tabWidth=190;tabHeight=30;tabPosition=left;html=1;whiteSpace=wrap;" vertex="1" parent="WIyWlLk6GJQsqaUBKTNV-1">
          <mxGeometry x="610" y="420" width="500" height="440" as="geometry" />
        </mxCell>
        <mxCell id="R-Bo7N0ZmrTt44GJ4YcD-100" value="" style="shape=folder;fontStyle=1;spacingTop=10;tabWidth=190;tabHeight=30;tabPosition=left;html=1;whiteSpace=wrap;" vertex="1" parent="WIyWlLk6GJQsqaUBKTNV-1">
          <mxGeometry x="-220" y="420" width="780" height="440" as="geometry" />
        </mxCell>
        <mxCell id="R-Bo7N0ZmrTt44GJ4YcD-4" value="Robot" style="swimlane;fontStyle=1;align=center;verticalAlign=top;childLayout=stackLayout;horizontal=1;startSize=26;horizontalStack=0;resizeParent=1;resizeParentMax=0;resizeLast=0;collapsible=1;marginBottom=0;whiteSpace=wrap;html=1;" vertex="1" parent="WIyWlLk6GJQsqaUBKTNV-1">
          <mxGeometry x="760" y="490" width="230" height="268" as="geometry" />
        </mxCell>
        <mxCell id="R-Bo7N0ZmrTt44GJ4YcD-5" value="+ pose: Pose" style="text;strokeColor=none;fillColor=none;align=left;verticalAlign=top;spacingLeft=4;spacingRight=4;overflow=hidden;rotatable=0;points=[[0,0.5],[1,0.5]];portConstraint=eastwest;whiteSpace=wrap;html=1;" vertex="1" parent="R-Bo7N0ZmrTt44GJ4YcD-4">
          <mxGeometry y="26" width="230" height="26" as="geometry" />
        </mxCell>
        <mxCell id="R-Bo7N0ZmrTt44GJ4YcD-15" value="+ deadman_switch_pressed: boolean" style="text;strokeColor=none;fillColor=none;align=left;verticalAlign=top;spacingLeft=4;spacingRight=4;overflow=hidden;rotatable=0;points=[[0,0.5],[1,0.5]];portConstraint=eastwest;whiteSpace=wrap;html=1;" vertex="1" parent="R-Bo7N0ZmrTt44GJ4YcD-4">
          <mxGeometry y="52" width="230" height="26" as="geometry" />
        </mxCell>
        <mxCell id="R-Bo7N0ZmrTt44GJ4YcD-16" value="- send_goal_fn: function" style="text;strokeColor=none;fillColor=none;align=left;verticalAlign=top;spacingLeft=4;spacingRight=4;overflow=hidden;rotatable=0;points=[[0,0.5],[1,0.5]];portConstraint=eastwest;whiteSpace=wrap;html=1;" vertex="1" parent="R-Bo7N0ZmrTt44GJ4YcD-4">
          <mxGeometry y="78" width="230" height="26" as="geometry" />
        </mxCell>
        <mxCell id="R-Bo7N0ZmrTt44GJ4YcD-17" value="- send_command_fn: function" style="text;strokeColor=none;fillColor=none;align=left;verticalAlign=top;spacingLeft=4;spacingRight=4;overflow=hidden;rotatable=0;points=[[0,0.5],[1,0.5]];portConstraint=eastwest;whiteSpace=wrap;html=1;" vertex="1" parent="R-Bo7N0ZmrTt44GJ4YcD-4">
          <mxGeometry y="104" width="230" height="26" as="geometry" />
        </mxCell>
        <mxCell id="R-Bo7N0ZmrTt44GJ4YcD-6" value="" style="line;strokeWidth=1;fillColor=none;align=left;verticalAlign=middle;spacingTop=-1;spacingLeft=3;spacingRight=3;rotatable=0;labelPosition=right;points=[];portConstraint=eastwest;strokeColor=inherit;" vertex="1" parent="R-Bo7N0ZmrTt44GJ4YcD-4">
          <mxGeometry y="130" width="230" height="8" as="geometry" />
        </mxCell>
        <mxCell id="R-Bo7N0ZmrTt44GJ4YcD-7" value="+ pose_callback(new_pose)" style="text;strokeColor=none;fillColor=none;align=left;verticalAlign=top;spacingLeft=4;spacingRight=4;overflow=hidden;rotatable=0;points=[[0,0.5],[1,0.5]];portConstraint=eastwest;whiteSpace=wrap;html=1;" vertex="1" parent="R-Bo7N0ZmrTt44GJ4YcD-4">
          <mxGeometry y="138" width="230" height="26" as="geometry" />
        </mxCell>
        <mxCell id="R-Bo7N0ZmrTt44GJ4YcD-9" value="+ deadman_switch_callback(new_state)" style="text;strokeColor=none;fillColor=none;align=left;verticalAlign=top;spacingLeft=4;spacingRight=4;overflow=hidden;rotatable=0;points=[[0,0.5],[1,0.5]];portConstraint=eastwest;whiteSpace=wrap;html=1;" vertex="1" parent="R-Bo7N0ZmrTt44GJ4YcD-4">
          <mxGeometry y="164" width="230" height="26" as="geometry" />
        </mxCell>
        <mxCell id="R-Bo7N0ZmrTt44GJ4YcD-10" value="+ goal_reached_callback()" style="text;strokeColor=none;fillColor=none;align=left;verticalAlign=top;spacingLeft=4;spacingRight=4;overflow=hidden;rotatable=0;points=[[0,0.5],[1,0.5]];portConstraint=eastwest;whiteSpace=wrap;html=1;" vertex="1" parent="R-Bo7N0ZmrTt44GJ4YcD-4">
          <mxGeometry y="190" width="230" height="26" as="geometry" />
        </mxCell>
        <mxCell id="R-Bo7N0ZmrTt44GJ4YcD-11" value="+ send_command(command)" style="text;strokeColor=none;fillColor=none;align=left;verticalAlign=top;spacingLeft=4;spacingRight=4;overflow=hidden;rotatable=0;points=[[0,0.5],[1,0.5]];portConstraint=eastwest;whiteSpace=wrap;html=1;" vertex="1" parent="R-Bo7N0ZmrTt44GJ4YcD-4">
          <mxGeometry y="216" width="230" height="26" as="geometry" />
        </mxCell>
        <mxCell id="R-Bo7N0ZmrTt44GJ4YcD-12" value="+ send_goal(goal&lt;span style=&quot;background-color: transparent; color: light-dark(rgb(0, 0, 0), rgb(255, 255, 255));&quot;&gt;)&lt;/span&gt;" style="text;strokeColor=none;fillColor=none;align=left;verticalAlign=top;spacingLeft=4;spacingRight=4;overflow=hidden;rotatable=0;points=[[0,0.5],[1,0.5]];portConstraint=eastwest;whiteSpace=wrap;html=1;" vertex="1" parent="R-Bo7N0ZmrTt44GJ4YcD-4">
          <mxGeometry y="242" width="230" height="26" as="geometry" />
        </mxCell>
        <mxCell id="R-Bo7N0ZmrTt44GJ4YcD-29" value="CommandSamplingStrategy" style="swimlane;fontStyle=1;align=center;verticalAlign=top;childLayout=stackLayout;horizontal=1;startSize=26;horizontalStack=0;resizeParent=1;resizeParentMax=0;resizeLast=0;collapsible=1;marginBottom=0;whiteSpace=wrap;html=1;" vertex="1" parent="WIyWlLk6GJQsqaUBKTNV-1">
          <mxGeometry x="265" y="490" width="200" height="60" as="geometry" />
        </mxCell>
        <mxCell id="R-Bo7N0ZmrTt44GJ4YcD-31" value="" style="line;strokeWidth=1;fillColor=none;align=left;verticalAlign=middle;spacingTop=-1;spacingLeft=3;spacingRight=3;rotatable=0;labelPosition=right;points=[];portConstraint=eastwest;strokeColor=inherit;" vertex="1" parent="R-Bo7N0ZmrTt44GJ4YcD-29">
          <mxGeometry y="26" width="200" height="8" as="geometry" />
        </mxCell>
        <mxCell id="R-Bo7N0ZmrTt44GJ4YcD-32" value="+ sample_command(): Command" style="text;strokeColor=none;fillColor=none;align=left;verticalAlign=top;spacingLeft=4;spacingRight=4;overflow=hidden;rotatable=0;points=[[0,0.5],[1,0.5]];portConstraint=eastwest;whiteSpace=wrap;html=1;" vertex="1" parent="R-Bo7N0ZmrTt44GJ4YcD-29">
          <mxGeometry y="34" width="200" height="26" as="geometry" />
        </mxCell>
        <mxCell id="R-Bo7N0ZmrTt44GJ4YcD-36" value="RandomSampling" style="swimlane;fontStyle=1;align=center;verticalAlign=top;childLayout=stackLayout;horizontal=1;startSize=26;horizontalStack=0;resizeParent=1;resizeParentMax=0;resizeLast=0;collapsible=1;marginBottom=0;whiteSpace=wrap;html=1;" vertex="1" parent="WIyWlLk6GJQsqaUBKTNV-1">
          <mxGeometry x="220" y="640" width="290" height="164" as="geometry" />
        </mxCell>
        <mxCell id="R-Bo7N0ZmrTt44GJ4YcD-37" value="- min_linear_speed: float" style="text;strokeColor=none;fillColor=none;align=left;verticalAlign=top;spacingLeft=4;spacingRight=4;overflow=hidden;rotatable=0;points=[[0,0.5],[1,0.5]];portConstraint=eastwest;whiteSpace=wrap;html=1;" vertex="1" parent="R-Bo7N0ZmrTt44GJ4YcD-36">
          <mxGeometry y="26" width="290" height="26" as="geometry" />
        </mxCell>
        <mxCell id="R-Bo7N0ZmrTt44GJ4YcD-40" value="- max_linear_speed: float" style="text;strokeColor=none;fillColor=none;align=left;verticalAlign=top;spacingLeft=4;spacingRight=4;overflow=hidden;rotatable=0;points=[[0,0.5],[1,0.5]];portConstraint=eastwest;whiteSpace=wrap;html=1;" vertex="1" parent="R-Bo7N0ZmrTt44GJ4YcD-36">
          <mxGeometry y="52" width="290" height="26" as="geometry" />
        </mxCell>
        <mxCell id="R-Bo7N0ZmrTt44GJ4YcD-41" value="- min_angular_speed: float" style="text;strokeColor=none;fillColor=none;align=left;verticalAlign=top;spacingLeft=4;spacingRight=4;overflow=hidden;rotatable=0;points=[[0,0.5],[1,0.5]];portConstraint=eastwest;whiteSpace=wrap;html=1;" vertex="1" parent="R-Bo7N0ZmrTt44GJ4YcD-36">
          <mxGeometry y="78" width="290" height="26" as="geometry" />
        </mxCell>
        <mxCell id="R-Bo7N0ZmrTt44GJ4YcD-44" value="- max_angular_speed: float" style="text;strokeColor=none;fillColor=none;align=left;verticalAlign=top;spacingLeft=4;spacingRight=4;overflow=hidden;rotatable=0;points=[[0,0.5],[1,0.5]];portConstraint=eastwest;whiteSpace=wrap;html=1;" vertex="1" parent="R-Bo7N0ZmrTt44GJ4YcD-36">
          <mxGeometry y="104" width="290" height="26" as="geometry" />
        </mxCell>
        <mxCell id="R-Bo7N0ZmrTt44GJ4YcD-38" value="" style="line;strokeWidth=1;fillColor=none;align=left;verticalAlign=middle;spacingTop=-1;spacingLeft=3;spacingRight=3;rotatable=0;labelPosition=right;points=[];portConstraint=eastwest;strokeColor=inherit;" vertex="1" parent="R-Bo7N0ZmrTt44GJ4YcD-36">
          <mxGeometry y="130" width="290" height="8" as="geometry" />
        </mxCell>
        <mxCell id="R-Bo7N0ZmrTt44GJ4YcD-39" value="+ sample_command(): Command" style="text;strokeColor=none;fillColor=none;align=left;verticalAlign=top;spacingLeft=4;spacingRight=4;overflow=hidden;rotatable=0;points=[[0,0.5],[1,0.5]];portConstraint=eastwest;whiteSpace=wrap;html=1;" vertex="1" parent="R-Bo7N0ZmrTt44GJ4YcD-36">
          <mxGeometry y="138" width="290" height="26" as="geometry" />
        </mxCell>
        <mxCell id="R-Bo7N0ZmrTt44GJ4YcD-45" style="edgeStyle=orthogonalEdgeStyle;rounded=0;orthogonalLoop=1;jettySize=auto;html=1;exitX=0.5;exitY=0;exitDx=0;exitDy=0;entryX=0.5;entryY=1;entryDx=0;entryDy=0;entryPerimeter=0;endArrow=block;endFill=0;endSize=16;" edge="1" parent="WIyWlLk6GJQsqaUBKTNV-1" source="R-Bo7N0ZmrTt44GJ4YcD-36" target="R-Bo7N0ZmrTt44GJ4YcD-32">
          <mxGeometry relative="1" as="geometry" />
        </mxCell>
        <mxCell id="R-Bo7N0ZmrTt44GJ4YcD-46" value="CommandSamplingFactory" style="swimlane;fontStyle=1;align=center;verticalAlign=top;childLayout=stackLayout;horizontal=1;startSize=26;horizontalStack=0;resizeParent=1;resizeParentMax=0;resizeLast=0;collapsible=1;marginBottom=0;whiteSpace=wrap;html=1;" vertex="1" parent="WIyWlLk6GJQsqaUBKTNV-1">
          <mxGeometry x="-140" y="490" width="360" height="60" as="geometry" />
        </mxCell>
        <mxCell id="R-Bo7N0ZmrTt44GJ4YcD-48" value="" style="line;strokeWidth=1;fillColor=none;align=left;verticalAlign=middle;spacingTop=-1;spacingLeft=3;spacingRight=3;rotatable=0;labelPosition=right;points=[];portConstraint=eastwest;strokeColor=inherit;" vertex="1" parent="R-Bo7N0ZmrTt44GJ4YcD-46">
          <mxGeometry y="26" width="360" height="8" as="geometry" />
        </mxCell>
        <mxCell id="R-Bo7N0ZmrTt44GJ4YcD-49" value="+ create_sampling_strategy(name): CommandSamplingStrategy" style="text;strokeColor=none;fillColor=none;align=left;verticalAlign=top;spacingLeft=4;spacingRight=4;overflow=hidden;rotatable=0;points=[[0,0.5],[1,0.5]];portConstraint=eastwest;whiteSpace=wrap;html=1;" vertex="1" parent="R-Bo7N0ZmrTt44GJ4YcD-46">
          <mxGeometry y="34" width="360" height="26" as="geometry" />
        </mxCell>
        <mxCell id="R-Bo7N0ZmrTt44GJ4YcD-56" style="edgeStyle=orthogonalEdgeStyle;rounded=0;orthogonalLoop=1;jettySize=auto;html=1;exitX=0.5;exitY=1;exitDx=0;exitDy=0;endArrow=diamond;endFill=1;startSize=16;endSize=16;" edge="1" parent="WIyWlLk6GJQsqaUBKTNV-1" source="R-Bo7N0ZmrTt44GJ4YcD-50" target="R-Bo7N0ZmrTt44GJ4YcD-4">
          <mxGeometry relative="1" as="geometry">
            <Array as="points">
              <mxPoint x="635" y="260" />
              <mxPoint x="630" y="260" />
              <mxPoint x="630" y="390" />
              <mxPoint x="875" y="390" />
            </Array>
          </mxGeometry>
        </mxCell>
        <mxCell id="R-Bo7N0ZmrTt44GJ4YcD-50" value="Drive" style="swimlane;fontStyle=1;align=center;verticalAlign=top;childLayout=stackLayout;horizontal=1;startSize=26;horizontalStack=0;resizeParent=1;resizeParentMax=0;resizeLast=0;collapsible=1;marginBottom=0;whiteSpace=wrap;html=1;" vertex="1" parent="WIyWlLk6GJQsqaUBKTNV-1">
          <mxGeometry x="480" y="120" width="310" height="138" as="geometry" />
        </mxCell>
        <mxCell id="R-Bo7N0ZmrTt44GJ4YcD-51" value="+ current_state: DriveState" style="text;strokeColor=none;fillColor=none;align=left;verticalAlign=top;spacingLeft=4;spacingRight=4;overflow=hidden;rotatable=0;points=[[0,0.5],[1,0.5]];portConstraint=eastwest;whiteSpace=wrap;html=1;" vertex="1" parent="R-Bo7N0ZmrTt44GJ4YcD-50">
          <mxGeometry y="26" width="310" height="26" as="geometry" />
        </mxCell>
        <mxCell id="R-Bo7N0ZmrTt44GJ4YcD-115" value="+ robot: Robot" style="text;strokeColor=none;fillColor=none;align=left;verticalAlign=top;spacingLeft=4;spacingRight=4;overflow=hidden;rotatable=0;points=[[0,0.5],[1,0.5]];portConstraint=eastwest;whiteSpace=wrap;html=1;" vertex="1" parent="R-Bo7N0ZmrTt44GJ4YcD-50">
          <mxGeometry y="52" width="310" height="26" as="geometry" />
        </mxCell>
        <mxCell id="R-Bo7N0ZmrTt44GJ4YcD-116" value="+ command_sampling: CommandSamplingStrategy" style="text;strokeColor=none;fillColor=none;align=left;verticalAlign=top;spacingLeft=4;spacingRight=4;overflow=hidden;rotatable=0;points=[[0,0.5],[1,0.5]];portConstraint=eastwest;whiteSpace=wrap;html=1;" vertex="1" parent="R-Bo7N0ZmrTt44GJ4YcD-50">
          <mxGeometry y="78" width="310" height="26" as="geometry" />
        </mxCell>
        <mxCell id="R-Bo7N0ZmrTt44GJ4YcD-52" value="" style="line;strokeWidth=1;fillColor=none;align=left;verticalAlign=middle;spacingTop=-1;spacingLeft=3;spacingRight=3;rotatable=0;labelPosition=right;points=[];portConstraint=eastwest;strokeColor=inherit;" vertex="1" parent="R-Bo7N0ZmrTt44GJ4YcD-50">
          <mxGeometry y="104" width="310" height="8" as="geometry" />
        </mxCell>
        <mxCell id="R-Bo7N0ZmrTt44GJ4YcD-118" value="+ run(timestamp_ns)" style="text;strokeColor=none;fillColor=none;align=left;verticalAlign=top;spacingLeft=4;spacingRight=4;overflow=hidden;rotatable=0;points=[[0,0.5],[1,0.5]];portConstraint=eastwest;whiteSpace=wrap;html=1;" vertex="1" parent="R-Bo7N0ZmrTt44GJ4YcD-50">
          <mxGeometry y="112" width="310" height="26" as="geometry" />
        </mxCell>
        <mxCell id="R-Bo7N0ZmrTt44GJ4YcD-55" style="edgeStyle=orthogonalEdgeStyle;rounded=0;orthogonalLoop=1;jettySize=auto;html=1;exitX=0.5;exitY=1;exitDx=0;exitDy=0;entryX=0.47;entryY=0;entryDx=0;entryDy=0;entryPerimeter=0;endArrow=diamond;endFill=1;endSize=15;" edge="1" parent="WIyWlLk6GJQsqaUBKTNV-1" source="R-Bo7N0ZmrTt44GJ4YcD-50" target="R-Bo7N0ZmrTt44GJ4YcD-29">
          <mxGeometry relative="1" as="geometry">
            <Array as="points">
              <mxPoint x="630" y="258" />
              <mxPoint x="630" y="390" />
              <mxPoint x="359" y="390" />
            </Array>
          </mxGeometry>
        </mxCell>
        <mxCell id="R-Bo7N0ZmrTt44GJ4YcD-60" value="DriveState" style="swimlane;fontStyle=1;align=center;verticalAlign=top;childLayout=stackLayout;horizontal=1;startSize=26;horizontalStack=0;resizeParent=1;resizeParentMax=0;resizeLast=0;collapsible=1;marginBottom=0;whiteSpace=wrap;html=1;" vertex="1" parent="WIyWlLk6GJQsqaUBKTNV-1">
          <mxGeometry x="20" y="120" width="200" height="60" as="geometry" />
        </mxCell>
        <mxCell id="R-Bo7N0ZmrTt44GJ4YcD-61" value="" style="line;strokeWidth=1;fillColor=none;align=left;verticalAlign=middle;spacingTop=-1;spacingLeft=3;spacingRight=3;rotatable=0;labelPosition=right;points=[];portConstraint=eastwest;strokeColor=inherit;" vertex="1" parent="R-Bo7N0ZmrTt44GJ4YcD-60">
          <mxGeometry y="26" width="200" height="8" as="geometry" />
        </mxCell>
        <mxCell id="R-Bo7N0ZmrTt44GJ4YcD-62" value="+ run(timestamp_ns)" style="text;strokeColor=none;fillColor=none;align=left;verticalAlign=top;spacingLeft=4;spacingRight=4;overflow=hidden;rotatable=0;points=[[0,0.5],[1,0.5]];portConstraint=eastwest;whiteSpace=wrap;html=1;" vertex="1" parent="R-Bo7N0ZmrTt44GJ4YcD-60">
          <mxGeometry y="34" width="200" height="26" as="geometry" />
        </mxCell>
        <mxCell id="R-Bo7N0ZmrTt44GJ4YcD-112" style="edgeStyle=orthogonalEdgeStyle;rounded=0;orthogonalLoop=1;jettySize=auto;html=1;exitX=0.5;exitY=0;exitDx=0;exitDy=0;entryX=0.5;entryY=1;entryDx=0;entryDy=0;endArrow=block;endFill=0;endSize=16;" edge="1" parent="WIyWlLk6GJQsqaUBKTNV-1" source="R-Bo7N0ZmrTt44GJ4YcD-66" target="R-Bo7N0ZmrTt44GJ4YcD-60">
          <mxGeometry relative="1" as="geometry" />
        </mxCell>
        <mxCell id="R-Bo7N0ZmrTt44GJ4YcD-66" value="WaitingState" style="swimlane;fontStyle=1;align=center;verticalAlign=top;childLayout=stackLayout;horizontal=1;startSize=26;horizontalStack=0;resizeParent=1;resizeParentMax=0;resizeLast=0;collapsible=1;marginBottom=0;whiteSpace=wrap;html=1;" vertex="1" parent="WIyWlLk6GJQsqaUBKTNV-1">
          <mxGeometry x="-190" y="236" width="200" height="60" as="geometry" />
        </mxCell>
        <mxCell id="R-Bo7N0ZmrTt44GJ4YcD-67" value="" style="line;strokeWidth=1;fillColor=none;align=left;verticalAlign=middle;spacingTop=-1;spacingLeft=3;spacingRight=3;rotatable=0;labelPosition=right;points=[];portConstraint=eastwest;strokeColor=inherit;" vertex="1" parent="R-Bo7N0ZmrTt44GJ4YcD-66">
          <mxGeometry y="26" width="200" height="8" as="geometry" />
        </mxCell>
        <mxCell id="R-Bo7N0ZmrTt44GJ4YcD-68" value="+ run(timestamp_ns)" style="text;strokeColor=none;fillColor=none;align=left;verticalAlign=top;spacingLeft=4;spacingRight=4;overflow=hidden;rotatable=0;points=[[0,0.5],[1,0.5]];portConstraint=eastwest;whiteSpace=wrap;html=1;" vertex="1" parent="R-Bo7N0ZmrTt44GJ4YcD-66">
          <mxGeometry y="34" width="200" height="26" as="geometry" />
        </mxCell>
        <mxCell id="R-Bo7N0ZmrTt44GJ4YcD-111" style="edgeStyle=orthogonalEdgeStyle;rounded=0;orthogonalLoop=1;jettySize=auto;html=1;exitX=0.5;exitY=0;exitDx=0;exitDy=0;entryX=0.5;entryY=1;entryDx=0;entryDy=0;endArrow=block;endFill=0;endSize=16;" edge="1" parent="WIyWlLk6GJQsqaUBKTNV-1" source="R-Bo7N0ZmrTt44GJ4YcD-69" target="R-Bo7N0ZmrTt44GJ4YcD-60">
          <mxGeometry relative="1" as="geometry" />
        </mxCell>
        <mxCell id="R-Bo7N0ZmrTt44GJ4YcD-69" value="GeofenceCreationStep" style="swimlane;fontStyle=1;align=center;verticalAlign=top;childLayout=stackLayout;horizontal=1;startSize=26;horizontalStack=0;resizeParent=1;resizeParentMax=0;resizeLast=0;collapsible=1;marginBottom=0;whiteSpace=wrap;html=1;" vertex="1" parent="WIyWlLk6GJQsqaUBKTNV-1">
          <mxGeometry x="20" y="236" width="200" height="60" as="geometry" />
        </mxCell>
        <mxCell id="R-Bo7N0ZmrTt44GJ4YcD-70" value="" style="line;strokeWidth=1;fillColor=none;align=left;verticalAlign=middle;spacingTop=-1;spacingLeft=3;spacingRight=3;rotatable=0;labelPosition=right;points=[];portConstraint=eastwest;strokeColor=inherit;" vertex="1" parent="R-Bo7N0ZmrTt44GJ4YcD-69">
          <mxGeometry y="26" width="200" height="8" as="geometry" />
        </mxCell>
        <mxCell id="R-Bo7N0ZmrTt44GJ4YcD-71" value="+ run(timestamp_ns)" style="text;strokeColor=none;fillColor=none;align=left;verticalAlign=top;spacingLeft=4;spacingRight=4;overflow=hidden;rotatable=0;points=[[0,0.5],[1,0.5]];portConstraint=eastwest;whiteSpace=wrap;html=1;" vertex="1" parent="R-Bo7N0ZmrTt44GJ4YcD-69">
          <mxGeometry y="34" width="200" height="26" as="geometry" />
        </mxCell>
        <mxCell id="R-Bo7N0ZmrTt44GJ4YcD-113" style="edgeStyle=orthogonalEdgeStyle;rounded=0;orthogonalLoop=1;jettySize=auto;html=1;exitX=0.5;exitY=0;exitDx=0;exitDy=0;entryX=0.5;entryY=1;entryDx=0;entryDy=0;endArrow=block;endFill=0;endSize=16;" edge="1" parent="WIyWlLk6GJQsqaUBKTNV-1" source="R-Bo7N0ZmrTt44GJ4YcD-72" target="R-Bo7N0ZmrTt44GJ4YcD-60">
          <mxGeometry relative="1" as="geometry" />
        </mxCell>
        <mxCell id="R-Bo7N0ZmrTt44GJ4YcD-72" value="..." style="swimlane;fontStyle=1;align=center;verticalAlign=top;childLayout=stackLayout;horizontal=1;startSize=26;horizontalStack=0;resizeParent=1;resizeParentMax=0;resizeLast=0;collapsible=1;marginBottom=0;whiteSpace=wrap;html=1;" vertex="1" parent="WIyWlLk6GJQsqaUBKTNV-1">
          <mxGeometry x="230" y="236" width="200" height="60" as="geometry" />
        </mxCell>
        <mxCell id="R-Bo7N0ZmrTt44GJ4YcD-73" value="" style="line;strokeWidth=1;fillColor=none;align=left;verticalAlign=middle;spacingTop=-1;spacingLeft=3;spacingRight=3;rotatable=0;labelPosition=right;points=[];portConstraint=eastwest;strokeColor=inherit;" vertex="1" parent="R-Bo7N0ZmrTt44GJ4YcD-72">
          <mxGeometry y="26" width="200" height="8" as="geometry" />
        </mxCell>
        <mxCell id="R-Bo7N0ZmrTt44GJ4YcD-74" value="+ run(timestamp_ns)" style="text;strokeColor=none;fillColor=none;align=left;verticalAlign=top;spacingLeft=4;spacingRight=4;overflow=hidden;rotatable=0;points=[[0,0.5],[1,0.5]];portConstraint=eastwest;whiteSpace=wrap;html=1;" vertex="1" parent="R-Bo7N0ZmrTt44GJ4YcD-72">
          <mxGeometry y="34" width="200" height="26" as="geometry" />
        </mxCell>
        <mxCell id="R-Bo7N0ZmrTt44GJ4YcD-101" value="&lt;span style=&quot;font-size: 15px;&quot;&gt;&lt;b&gt;sampling.py&lt;/b&gt;&lt;/span&gt;" style="text;html=1;align=center;verticalAlign=middle;whiteSpace=wrap;rounded=0;" vertex="1" parent="WIyWlLk6GJQsqaUBKTNV-1">
          <mxGeometry x="-150" y="420" width="60" height="30" as="geometry" />
        </mxCell>
        <mxCell id="R-Bo7N0ZmrTt44GJ4YcD-105" value="&lt;span style=&quot;font-size: 15px;&quot;&gt;&lt;b&gt;robot.py&lt;/b&gt;&lt;/span&gt;" style="text;html=1;align=center;verticalAlign=middle;whiteSpace=wrap;rounded=0;" vertex="1" parent="WIyWlLk6GJQsqaUBKTNV-1">
          <mxGeometry x="680" y="420" width="60" height="30" as="geometry" />
        </mxCell>
        <mxCell id="R-Bo7N0ZmrTt44GJ4YcD-107" value="&lt;span style=&quot;font-size: 15px;&quot;&gt;&lt;b&gt;drive.py&lt;/b&gt;&lt;/span&gt;" style="text;html=1;align=center;verticalAlign=middle;whiteSpace=wrap;rounded=0;" vertex="1" parent="WIyWlLk6GJQsqaUBKTNV-1">
          <mxGeometry x="-150" y="20" width="60" height="30" as="geometry" />
        </mxCell>
        <mxCell id="R-Bo7N0ZmrTt44GJ4YcD-117" style="edgeStyle=orthogonalEdgeStyle;rounded=0;orthogonalLoop=1;jettySize=auto;html=1;exitX=0;exitY=0.5;exitDx=0;exitDy=0;entryX=1.027;entryY=0.212;entryDx=0;entryDy=0;entryPerimeter=0;endArrow=diamond;endFill=1;endSize=16;" edge="1" parent="WIyWlLk6GJQsqaUBKTNV-1" source="R-Bo7N0ZmrTt44GJ4YcD-115" target="R-Bo7N0ZmrTt44GJ4YcD-62">
          <mxGeometry relative="1" as="geometry">
            <Array as="points">
              <mxPoint x="480" y="160" />
            </Array>
          </mxGeometry>
        </mxCell>
        <mxCell id="R-Bo7N0ZmrTt44GJ4YcD-119" value="" style="shape=folder;fontStyle=1;spacingTop=10;tabWidth=190;tabHeight=30;tabPosition=left;html=1;whiteSpace=wrap;" vertex="1" parent="WIyWlLk6GJQsqaUBKTNV-1">
          <mxGeometry x="1160" y="21" width="380" height="336" as="geometry" />
        </mxCell>
        <mxCell id="R-Bo7N0ZmrTt44GJ4YcD-120" value="&lt;span style=&quot;font-size: 15px;&quot;&gt;&lt;b&gt;server.py&lt;/b&gt;&lt;/span&gt;" style="text;html=1;align=center;verticalAlign=middle;whiteSpace=wrap;rounded=0;" vertex="1" parent="WIyWlLk6GJQsqaUBKTNV-1">
          <mxGeometry x="1230" y="21" width="60" height="30" as="geometry" />
        </mxCell>
        <mxCell id="R-Bo7N0ZmrTt44GJ4YcD-121" value="Server" style="swimlane;fontStyle=1;align=center;verticalAlign=top;childLayout=stackLayout;horizontal=1;startSize=26;horizontalStack=0;resizeParent=1;resizeParentMax=0;resizeLast=0;collapsible=1;marginBottom=0;whiteSpace=wrap;html=1;" vertex="1" parent="WIyWlLk6GJQsqaUBKTNV-1">
          <mxGeometry x="1195" y="120" width="310" height="86" as="geometry" />
        </mxCell>
        <mxCell id="R-Bo7N0ZmrTt44GJ4YcD-122" value="+ drive: Drive" style="text;strokeColor=none;fillColor=none;align=left;verticalAlign=top;spacingLeft=4;spacingRight=4;overflow=hidden;rotatable=0;points=[[0,0.5],[1,0.5]];portConstraint=eastwest;whiteSpace=wrap;html=1;" vertex="1" parent="R-Bo7N0ZmrTt44GJ4YcD-121">
          <mxGeometry y="26" width="310" height="26" as="geometry" />
        </mxCell>
        <mxCell id="R-Bo7N0ZmrTt44GJ4YcD-125" value="" style="line;strokeWidth=1;fillColor=none;align=left;verticalAlign=middle;spacingTop=-1;spacingLeft=3;spacingRight=3;rotatable=0;labelPosition=right;points=[];portConstraint=eastwest;strokeColor=inherit;" vertex="1" parent="R-Bo7N0ZmrTt44GJ4YcD-121">
          <mxGeometry y="52" width="310" height="8" as="geometry" />
        </mxCell>
        <mxCell id="R-Bo7N0ZmrTt44GJ4YcD-126" value="+ update_visualization()" style="text;strokeColor=none;fillColor=none;align=left;verticalAlign=top;spacingLeft=4;spacingRight=4;overflow=hidden;rotatable=0;points=[[0,0.5],[1,0.5]];portConstraint=eastwest;whiteSpace=wrap;html=1;" vertex="1" parent="R-Bo7N0ZmrTt44GJ4YcD-121">
          <mxGeometry y="60" width="310" height="26" as="geometry" />
        </mxCell>
        <mxCell id="R-Bo7N0ZmrTt44GJ4YcD-127" style="edgeStyle=orthogonalEdgeStyle;rounded=0;orthogonalLoop=1;jettySize=auto;html=1;exitX=0;exitY=0.5;exitDx=0;exitDy=0;entryX=1;entryY=0.5;entryDx=0;entryDy=0;endArrow=diamond;endFill=1;endSize=16;" edge="1" parent="WIyWlLk6GJQsqaUBKTNV-1" source="R-Bo7N0ZmrTt44GJ4YcD-122" target="R-Bo7N0ZmrTt44GJ4YcD-51">
          <mxGeometry relative="1" as="geometry" />
        </mxCell>
      </root>
    </mxGraphModel>
  </diagram>
</mxfile>
